<svg width="64" height="71" viewBox="0 0 64 71" fill="none" xmlns="http://www.w3.org/2000/svg">
<path d="M31.8125 2.13454e-06C33.0208 2.08172e-06 34.1042 0.500002 35.0625 1.5C36 2.5 36.75 3.83334 37.3125 5.5C37.8542 7.16667 38.125 8.98959 38.125 10.9688L38.125 23.5625C38.125 24.4375 38.2187 25.1042 38.4062 25.5625C38.5937 26 38.9792 26.4792 39.5625 27L62.5 48C63.25 48.6875 63.625 49.4896 63.625 50.4063L63.625 54.0313C63.625 54.4271 63.4687 54.7292 63.1562 54.9375C62.8437 55.125 62.4687 55.1146 62.0312 54.9063L38.125 44.0938L36.3125 59.9688L46.6875 65.625C47.4167 66.0417 47.7812 66.75 47.7812 67.75L47.7812 69.0938C47.7812 69.4896 47.6667 69.8125 47.4375 70.0625C47.1875 70.3125 46.8646 70.4375 46.4687 70.4375L17.1562 70.4375C16.7396 70.4375 16.4167 70.3125 16.1875 70.0625C15.9375 69.8125 15.8125 69.4896 15.8125 69.0938L15.8125 67.75C15.8125 66.75 16.1875 66.0417 16.9375 65.625L27.3125 59.9688L25.5 44.0938L1.59375 54.9063C1.15625 55.1146 0.781249 55.125 0.468749 54.9375C0.156249 54.7292 -1.05089e-06 54.4271 -1.0682e-06 54.0313L-1.22665e-06 50.4063C-1.26672e-06 49.4896 0.374999 48.6875 1.125 48L24.0312 27C24.6146 26.4792 25.0104 26 25.2187 25.5625C25.4062 25.1042 25.5 24.4375 25.5 23.5625L25.5 10.9688C25.5 8.98959 25.7812 7.16667 26.3437 5.5C26.8854 3.83334 27.6354 2.5 28.5937 1.5C29.5312 0.500002 30.6042 2.18736e-06 31.8125 2.13454e-06Z" fill="#5B97EC"/>
</svg>
