<svg width="46" height="32" viewBox="0 0 46 32" fill="none" xmlns="http://www.w3.org/2000/svg">
<path d="M9.87891 19.6172C9.14062 19.8164 8.47266 19.8691 7.875 19.7754C7.28906 19.6699 6.79102 19.3887 6.38086 18.9316L0.210938 12.0059C0.0703125 11.8535 0 11.6777 0 11.4785C0.0117188 11.2793 0.105469 11.1035 0.28125 10.9512L0.791016 10.4766C1.02539 10.2656 1.24805 10.1367 1.45898 10.0898C1.68164 10.043 1.91016 10.0605 2.14453 10.1426L12.4453 13.7988L9 13.6934L17.8945 10.6348L17.5605 12.3047L7.48828 1.61719C7.30078 1.41797 7.23047 1.21289 7.27734 1.00195C7.32422 0.791016 7.45312 0.650391 7.66406 0.580078L8.87695 0.210938C9.36914 0.0703125 9.86133 0.111328 10.3535 0.333984L25.084 7.29492C25.5059 7.49414 25.8691 7.60547 26.1738 7.62891C26.4902 7.64063 26.8301 7.58789 27.1934 7.4707L37.7578 3.84961C38.7656 3.50977 39.7734 3.35156 40.7812 3.375C41.7891 3.38672 42.6738 3.58594 43.4355 3.97266C44.209 4.34766 44.7363 4.91602 45.0176 5.67773C45.3223 6.50977 45.2812 7.32422 44.8945 8.12109C44.5078 8.90625 43.8809 9.60352 43.0137 10.2129C42.1465 10.8223 41.1504 11.2793 40.0254 11.584L9.87891 19.6172ZM3.44531 31.3945C3.05859 31.3945 2.72461 31.2539 2.44336 30.9727C2.17383 30.6914 2.03906 30.3574 2.03906 29.9707C2.03906 29.584 2.17383 29.25 2.44336 28.9688C2.72461 28.6992 3.05859 28.5645 3.44531 28.5645H41.3789C41.7656 28.5645 42.0996 28.6992 42.3809 28.9688C42.6621 29.25 42.8027 29.584 42.8027 29.9707C42.8027 30.3574 42.6621 30.6914 42.3809 30.9727C42.0996 31.2539 41.7656 31.3945 41.3789 31.3945H3.44531Z" fill="#2A2A2A"/>
</svg>
