<svg width="18" height="31" viewBox="0 0 18 31" fill="none" xmlns="http://www.w3.org/2000/svg">
<path d="M5.67467e-07 15.2578C5.86932e-07 15.0352 0.0468756 14.8242 0.140626 14.625C0.222657 14.4375 0.345704 14.2617 0.509766 14.0977L14.4316 0.474612C14.748 0.158206 15.1348 2.65976e-06 15.5918 2.69972e-06C15.8848 2.72533e-06 16.1543 0.0703152 16.4004 0.21094C16.6465 0.351565 16.8398 0.544925 16.9805 0.791018C17.1211 1.02539 17.1914 1.29492 17.1914 1.59961C17.1914 2.03321 17.0391 2.41407 16.7344 2.74219L3.9375 15.2578L16.7344 27.7734C17.0391 28.1016 17.1914 28.4824 17.1914 28.916C17.1914 29.2207 17.1211 29.4902 16.9805 29.7246C16.8398 29.9707 16.6465 30.1641 16.4004 30.3047C16.1543 30.4453 15.8848 30.5156 15.5918 30.5156C15.1348 30.5156 14.748 30.3633 14.4316 30.0586L0.509766 16.418C0.345704 16.2539 0.222657 16.0723 0.140626 15.873C0.0468755 15.6855 5.48002e-07 15.4805 5.67467e-07 15.2578Z" fill="#2A2A2A"/>
</svg>
