<svg width="40" height="40" viewBox="0 0 40 40" fill="none" xmlns="http://www.w3.org/2000/svg">
<path d="M12 2H6C4.93913 2 3.92172 2.42143 3.17157 3.17157C2.42143 3.92172 2 4.93913 2 6V12M38 12V6C38 4.93913 37.5786 3.92172 36.8284 3.17157C36.0783 2.42143 35.0609 2 34 2H28M28 38H34C35.0609 38 36.0783 37.5786 36.8284 36.8284C37.5786 36.0783 38 35.0609 38 34V28M2 28V34C2 35.0609 2.42143 36.0783 3.17157 36.8284C3.92172 37.5786 4.93913 38 6 38H12" stroke="#1E1E1E" stroke-width="4" stroke-linecap="round" stroke-linejoin="round"/>
</svg>
