<svg width="40" height="40" viewBox="0 0 40 40" fill="none" xmlns="http://www.w3.org/2000/svg">
<path d="M12 2V8C12 9.06087 11.5786 10.0783 10.8284 10.8284C10.0783 11.5786 9.06087 12 8 12H2M38 12H32C30.9391 12 29.9217 11.5786 29.1716 10.8284C28.4214 10.0783 28 9.06087 28 8V2M28 38V32C28 30.9391 28.4214 29.9217 29.1716 29.1716C29.9217 28.4214 30.9391 28 32 28H38M2 28H8C9.06087 28 10.0783 28.4214 10.8284 29.1716C11.5786 29.9217 12 30.9391 12 32V38" stroke="#1E1E1E" stroke-width="4" stroke-linecap="round" stroke-linejoin="round"/>
</svg>
